<?xml version="1.0" encoding="UTF-8"?>
<svg id="Layer_1" data-name="Layer 1" xmlns="http://www.w3.org/2000/svg" viewBox="0 0 2342.16 338.55">
  <defs>
    <style>
      .cls-1 {
        fill: #fff;
      }
    </style>
  </defs>
  <g>
    <path class="cls-1" d="M1807.24,286.52c.39-1.72,2.94-1.57,4.52-2.97,3.71-3.3,5.13-10.65,5.51-15.45,3.23-40.98-1.66-87.26-1.16-128.59-2.23-23.61-19.46-37.23-43.12-32.3-3.62.75-7.14,3.36-10.73,3.26,18.22-17.27,44.01-26.12,69-20.99,28.56,5.86,35.61,29.89,36.99,55.85,2.24,42.18-1.76,86.33-.04,128.72.24,2.75,1.38,5.73,3.15,7.83,1.9,2.26,4.51,2.52,5.85,4.64h-69.97Z"/>
    <path class="cls-1" d="M1737.27,90.01v185.04c0,.77,3.17,6.81,3.98,7.71,1.61,1.78,4.28,1.82,5.01,3.76h-69.97l6.83-5.65c1.87-2.92,2.82-7.35,3.15-10.82,4.6-49.01-3.44-104.9.05-154.63-.64-7.01-2.48-13.32-8.12-17.83-2.96-2.37-6.53-2.95-8.9-5.57l67.97-2Z"/>
  </g>
  <g>
    <path class="cls-1" d="M642.73,286.52c1.79-2.21,4.74-3.41,6.45-6.03,1.43-2.2,2.26-4.83,2.55-7.43-2.34-41.93,3.1-87.18.04-128.72-1.87-25.36-17.02-43.28-44.07-36.92-4.13.97-7.87,3.86-11.94,4.04,37.35-34.2,102.75-36.47,106.99,26.89,2.85,42.5-4.22,91.04-.03,132.7.32,3.14,1.42,7.17,3.15,9.82l6.83,5.65h-69.97Z"/>
    <path class="cls-1" d="M571.76,90.01v181.05c0,1.58,1.84,7.47,2.8,9.18,1.77,3.17,4.24,3.69,6.2,6.28h-69.97c-.11-1.69,2.17-.91,3.54-1.95,3.6-2.74,6.06-6.94,6.46-11.51l.04-160.64c-.33-3.64-2.29-9.57-4.58-12.39-3.03-3.73-8.56-4.37-11.46-8.01l66.97-2Z"/>
  </g>
  <g>
    <path class="cls-1" d="M2030.14,87.03l-8.34,3.13c-19.6,9.66-28.51,31.71-32.95,51.91-11.97,54.44-3.77,144.42,71.77,137.46,12.65-1.17,22.98-7.08,33.4-13.55.85-.53,2.17-2.5,3.09-.9-35.86,36.28-110.82,33.23-144.45-4.47-25.1-28.13-28.83-74.74-16.5-109.26,14.29-39.99,51.88-64.01,93.97-64.31Z"/>
    <path class="cls-1" d="M2074.13,107.95c-3.9-11.65-17.08-19.21-28.98-19.95-.25-1.71,2.37-1.06,3.48-.98,18.15,1.35,42.56,8,55.01,21.93,20.59,23.03,6.59,57.98-26.55,50.44-25.98-5.91-26.43-42.5-2.95-51.44Z"/>
    <g>
      <path class="cls-1" d="M2249.05,87.03l-11.7,3.77c-30.87,16.55-31.64,98.48-25.99,128.09,7.45,39.08,33.81,63.99,75.16,60.63,10.37-.84,19.2-4.89,28.5-8.95-30.17,26.34-83.75,25.2-117.26,5.78-42.35-24.55-52.28-81.35-36.7-125.01,13.47-37.73,47.74-63.06,87.98-64.31Z"/>
      <path class="cls-1" d="M2342.02,176.8h-93.96v-1h19.49c.33,0,5.74-1.23,6.52-1.48,16.67-5.31,17.01-26.6,16.01-40.96-1.37-19.85-11.89-45.19-35.02-45.36l10.53-1.03c49.15,3.24,78.9,41.97,76.43,89.82Z"/>
    </g>
  </g>
  <g>
    <path class="cls-1" d="M1526.35,87.03l-11.67,3.8c-31.31,16.28-31.99,100.35-25.84,129.89,7.99,38.37,34.49,62.1,74.99,58.8,10.37-.84,19.2-4.89,28.5-8.95-45.28,36.41-127.64,22.6-151.79-32.57-28.83-65.84,9.61-148.96,85.82-150.97Z"/>
    <path class="cls-1" d="M1619.32,176.8h-93.96v-1h19.49c1.74,0,9.34-2.69,11.2-3.78,15.62-9.13,12.46-42.17,7.57-56.85-4.57-13.71-15.67-27.29-31.26-27.16l10.53-1.03c15.79,1.95,30.68,5.95,43.76,15.19,24,16.95,33.22,46.12,32.67,74.63Z"/>
  </g>
  <g>
    <path class="cls-1" d="M116.95,165.81c44.95.88,80.37,15.77,92.47,61.84,6.86,26.13,2.36,78.8,20.44,97.31,7.71,7.89,17.16,7.91,27.06,9.91,1.08.22,3.23.06,2.96,1.5-20.75,1.24-41.69,3.58-62.45.99-20.63-2.57-36.9-9.38-43.44-30.47-11.08-35.74-.05-102.6-30.57-127.1-21.07-16.91-54.17-12.26-79.44-13-.23-1.74,2.27-.94,3.48-.99,29.89-1.22,72.71,4.74,92.3-23.61,13.77-19.93,14.39-61.22,9.87-84.33C135.09-16.56,55.65,5.89,0,2.23L1.48.24c57.18,3.03,129.59-9.64,181.46,19.43,49.4,27.7,48.12,92.51,1.9,122.63-21.77,14.19-40.43,15.45-64.39,21.53-1.39.35-3.11-.01-3.5,1.99Z"/>
    <path class="cls-1" d="M361.84,87.03l-11.67,3.8c-20.96,10.9-26.53,48.32-28.3,69.52-3.02,36.25-1.55,89,33.67,110.02,16.68,9.95,39.32,11.74,57.79,6.2,5.65-1.69,10.2-4.65,15.48-6.99-20.93,19.19-51.97,23.37-79.34,19.81-121.13-15.74-103.92-199.02,12.36-202.36Z"/>
    <path class="cls-1" d="M454.81,176.8h-93.96v-1h19.49c1.95,0,9.87-2.88,11.83-4.15,15.77-10.26,11.27-46.51,4.84-61.36-4.98-11.5-15.82-22.61-29.16-22.28l9.53-1.03c27.88,2.56,53.2,14.96,66.6,40.27,8.03,15.18,10.62,32.51,10.83,49.54Z"/>
  </g>
  <g>
    <path class="cls-1" d="M859.63,87.03l-11.67,3.8c-31.04,16.13-31.4,93.45-27.14,123.21,5.89,41.1,31.72,68.68,75.29,65.49,10.84-.79,19.82-4.58,29.5-8.96-32.95,28.03-92.79,25.51-126.43-.03-38.73-29.4-43.58-91.55-22.03-132.67,15.98-30.5,47.99-49.98,82.48-50.84Z"/>
    <path class="cls-1" d="M952.6,176.8h-93.96v-1h19.49c1.95,0,9.87-2.88,11.83-4.15,15.8-10.27,11.29-46.47,4.84-61.36-4.98-11.5-15.82-22.61-29.16-22.28l9.53-1.03c26.82,2.43,52.03,14.34,65.6,38.27,8.83,15.56,11.56,33.86,11.82,51.54Z"/>
  </g>
  <path class="cls-1" d="M1004.58,222.68l24.02,34.39c16.29,19.59,36.18,33.77,62.96,32.94-19.23,1.24-41.41-3.82-59.51-10.45-2.57-.94-11.87-6.02-12.99-6-3.33.07-10.46,13.34-14.48,14.95v-65.84Z"/>
  <g>
    <g>
      <path class="cls-1" d="M1292.45,87.03c-.89,1.78-4.82.88-7.04,1.44-27.39,6.92-37.58,42.46-12.86,59.81,37.57,26.35,122.78,14.97,105.4,91.4-5.41,23.8-31.03,45.81-55.12,48.74-1.08.13-3.63.86-3.38-.88,28.15-6.04,34.54-43.44,12.32-60.69-34.66-26.9-112.14-17.6-110.32-78.52,1.16-38.79,34.65-61.05,71-61.29Z"/>
      <path class="cls-1" d="M1221.49,222.68c21.52,31.1,44.5,69.39,87.97,67.33-24.51,1.33-50.57-6-72.67-16.3l-15.31,15.8v-66.83Z"/>
      <path class="cls-1" d="M1367.43,88.02v58.85l-18.58-26.85c-12.31-16.02-27.73-31.87-49.4-32.5,19.04-1.44,38.85,4.52,54.5,15.28l13.48-14.78Z"/>
    </g>
    <g>
      <path class="cls-1" d="M1074.54,87.03l-11.53,2.95c-18.3,5.88-28.14,32.86-17.7,48.66,19.28,29.18,83.26,21.22,108.03,54.79,15.01,20.34,10,53.08-5.86,71.62-9.3,10.86-28.29,21.63-42.56,23.37-1.08.13-3.63.86-3.38-.88,21.44-3.4,31.4-29.1,23.49-47.89-15.84-37.6-114.19-26.77-120.34-79.41-5.26-44.95,27.33-72.05,69.86-73.2Z"/>
      <path class="cls-1" d="M1149.52,88.02v57.86c-17.76-23.41-33.64-56.14-66.98-58.35,19.18-1.57,38.5,5.15,54.42,15.45l12.57-14.95Z"/>
    </g>
  </g>
</svg>